<?xml version="1.0" encoding="UTF-8"?>
<svg xmlns="http://www.w3.org/2000/svg" width="1200" height="700" viewBox="0 0 1200 700">
  <style>
    .box { fill:#f3f4f6; stroke:#333; stroke-width:1px; rx:6; }
    .actor { fill:#fff3bf; stroke:#b45309; stroke-width:1px; rx:6; }
    .label { font-family: Arial, Helvetica, sans-serif; font-size:14px; fill:#111827; }
    .title { font-family: Arial, Helvetica, sans-serif; font-size:18px; font-weight:600; }
    .note { font-family: Arial, Helvetica, sans-serif; font-size:12px; fill:#374151; }
    .arrow { stroke:#333; stroke-width:1.5; fill:none; marker-end:url(#arrowhead); }
  </style>

  <defs>
    <marker id="arrowhead" markerWidth="10" markerHeight="7" refX="10" refY="3.5" orient="auto">
      <polygon points="0 0, 10 3.5, 0 7" fill="#333" />
    </marker>
  </defs>

  <text x="20" y="28" class="title">Diagrama REG-SIS-007 — Base de datos y casos de uso</text>

  <!-- Actors -->
  <g transform="translate(20,60)">
    <rect class="actor" x="0" y="0" width="200" height="48" />
    <text x="12" y="30" class="label">Solicitante / Calidad</text>

    <rect class="actor" x="0" y="72" width="160" height="48" />
    <text x="12" y="102" class="label">Sistemas</text>

    <rect class="actor" x="0" y="144" width="160" height="48" />
    <text x="12" y="174" class="label">Administrador</text>
  </g>

  <!-- Database boxes -->
  <g transform="translate(240,60)">
    <rect class="box" x="0" y="0" width="220" height="48" />
    <text x="16" y="32" class="label">Usuarios (`Users`)</text>

    <rect class="box" x="0" y="88" width="260" height="64" />
    <text x="16" y="118" class="label">Solicitudes (`Requests`)</text>

    <rect class="box" x="320" y="88" width="220" height="48" />
    <text x="336" y="118" class="label">Adjuntos (`Attachments`)</text>

    <rect class="box" x="320" y="156" width="220" height="48" />
    <text x="336" y="186" class="label">Aprobaciones (`Signatures`)</text>

    <rect class="box" x="0" y="168" width="260" height="48" />
    <text x="16" y="198" class="label">Historial (`RequestHistory`)</text>
  </g>

  <!-- Arrows: Actors -> Use cases / DB relations -->
  <!-- Solicitante/Calidad -> Crear solicitud (Solicitudes) -->
  <path class="arrow" d="M200 84 L260 100 L320 120" />

  <!-- Calidad/Sistemas -> Transición (Solicitudes) -->
  <path class="arrow" d="M200 140 L280 140 L320 152" />

  <!-- Sistemas -> Verifica (Solicitudes) -->
  <path class="arrow" d="M200 192 L280 200 L320 160" />

  <!-- DB relationships -->
  <path class="arrow" d="M360 104 L400 104" />
  <text x="384" y="96" class="note">tiene adjuntos</text>

  <path class="arrow" d="M240 104 L300 104" />
  <text x="264" y="96" class="note">Solicitó</text>

  <path class="arrow" d="M320 184 L320 160" />
  <text x="300" y="172" class="note">tiene aprobaciones</text>

  <path class="arrow" d="M160 260 L360 200" />
  <text x="190" y="238" class="note">Exportar / Imprimir</text>

  <!-- Notes -->
  <rect x="560" y="40" width="600" height="120" fill="#eef2ff" stroke="#3730a3" rx="6" />
  <text x="576" y="64" class="label">Notas:</text>
  <text x="576" y="88" class="note">- `Azure Image Intelligence` valida calidad y OCR en los adjuntos.</text>
  <text x="576" y="110" class="note">- Aprobación final: decisión de `Sistemas` + `Calidad`. Imagen de firma opcional.</text>

  <text x="20" y="680" class="note">Generado automáticamente a partir de `docs/diagrams/regsis-db-usecases.mmd`</text>
</svg>
